<?xml version="1.0" encoding="UTF-8" standalone="no"?>
<!DOCTYPE svg PUBLIC "-//W3C//DTD SVG 1.1//EN" "http://www.w3.org/Graphics/SVG/1.1/DTD/svg11.dtd">
<svg width="100%" height="100%" viewBox="0 0 100 281" version="1.1" xmlns="http://www.w3.org/2000/svg" xmlns:xlink="http://www.w3.org/1999/xlink" xml:space="preserve" xmlns:serif="http://www.serif.com/" style="fill-rule:evenodd;clip-rule:evenodd;stroke-linejoin:round;stroke-miterlimit:2;">
    <g transform="matrix(1,0,0,1,-493.121,-226.686)">
        <g transform="matrix(1,0,0,1,124.719,-5.58526)">
            <path d="M388.156,322.077C376.153,312.939 368.402,298.503 368.402,282.271C368.402,254.675 390.806,232.271 418.402,232.271C445.998,232.271 468.402,254.675 468.402,282.271C468.402,298.503 460.651,312.939 448.648,322.077L418.402,512.285L388.156,322.077ZM418.402,262.623C428.061,262.623 435.902,270.465 435.902,280.123C435.902,289.782 428.061,297.623 418.402,297.623C408.743,297.623 400.902,289.782 400.902,280.123C400.902,270.465 408.743,262.623 418.402,262.623Z" style="fill:rgb(0,36,255);"/>
            <path d="M388.156,322.077C376.153,312.939 368.402,298.503 368.402,282.271C368.402,254.675 390.806,232.271 418.402,232.271C445.998,232.271 468.402,254.675 468.402,282.271C468.402,298.503 460.651,312.939 448.648,322.077L418.402,512.285L388.156,322.077ZM393.588,321.214C393.366,319.816 392.614,318.558 391.488,317.701C380.804,309.567 373.902,296.719 373.902,282.271C373.902,257.711 393.842,237.771 418.402,237.771C442.962,237.771 462.902,257.711 462.902,282.271C462.902,296.719 456,309.567 445.316,317.701C444.19,318.558 443.438,319.816 443.216,321.214L418.402,477.263C418.402,477.263 393.588,321.214 393.588,321.214ZM418.402,257.123C405.708,257.123 395.402,267.429 395.402,280.123C395.402,292.817 405.708,303.123 418.402,303.123C431.096,303.123 441.402,292.817 441.402,280.123C441.402,267.429 431.096,257.123 418.402,257.123ZM418.402,262.623C428.061,262.623 435.902,270.465 435.902,280.123C435.902,289.782 428.061,297.623 418.402,297.623C408.743,297.623 400.902,289.782 400.902,280.123C400.902,270.465 408.743,262.623 418.402,262.623Z" style="fill:white;"/>
        </g>
    </g>
</svg>
