<?xml version="1.0" encoding="UTF-8" standalone="no"?>
<!DOCTYPE svg PUBLIC "-//W3C//DTD SVG 1.1//EN" "http://www.w3.org/Graphics/SVG/1.1/DTD/svg11.dtd">
<svg width="100%" height="100%" viewBox="0 0 100 176" version="1.1" xmlns="http://www.w3.org/2000/svg" xmlns:xlink="http://www.w3.org/1999/xlink" xml:space="preserve" xmlns:serif="http://www.serif.com/" style="fill-rule:evenodd;clip-rule:evenodd;stroke-linejoin:round;stroke-miterlimit:2;">
    <g transform="matrix(1,0,0,1,-243.53,-233.142)">
        <g transform="matrix(1,0,0,1,-124.872,0.870854)">
            <path d="M388.156,322.077C376.153,312.939 368.402,298.503 368.402,282.271C368.402,254.675 390.806,232.271 418.402,232.271C445.998,232.271 468.402,254.675 468.402,282.271C468.402,298.503 460.651,312.939 448.648,322.077L418.402,407.287L388.156,322.077ZM418.402,262.623C428.061,262.623 435.902,270.465 435.902,280.123C435.902,289.782 428.061,297.623 418.402,297.623C408.743,297.623 400.902,289.782 400.902,280.123C400.902,270.465 408.743,262.623 418.402,262.623Z" style="fill:rgb(14,113,115);"/>
            <path d="M388.156,322.077C376.153,312.939 368.402,298.503 368.402,282.271C368.402,254.675 390.806,232.271 418.402,232.271C445.998,232.271 468.402,254.675 468.402,282.271C468.402,298.503 460.651,312.939 448.648,322.077L418.402,407.287L388.156,322.077ZM391.455,320.907C391.227,320.266 390.818,319.705 390.276,319.293C379.113,310.793 371.902,297.368 371.902,282.271C371.902,256.607 392.738,235.771 418.402,235.771C444.066,235.771 464.902,256.607 464.902,282.271C464.902,297.368 457.691,310.793 446.528,319.293C445.986,319.705 445.577,320.266 445.349,320.907L418.402,396.824C418.402,396.824 391.455,320.907 391.455,320.907ZM418.402,259.123C406.812,259.123 397.402,268.533 397.402,280.123C397.402,291.713 406.812,301.123 418.402,301.123C429.992,301.123 439.402,291.713 439.402,280.123C439.402,268.533 429.992,259.123 418.402,259.123ZM418.402,262.623C428.061,262.623 435.902,270.465 435.902,280.123C435.902,289.782 428.061,297.623 418.402,297.623C408.743,297.623 400.902,289.782 400.902,280.123C400.902,270.465 408.743,262.623 418.402,262.623Z" style="fill:white;"/>
        </g>
    </g>
</svg>
